<svg width="1080" height="1920" viewBox="0 0 1080 1920" fill="none" xmlns="http://www.w3.org/2000/svg">
<path d="M-4.71655 -46.568C-4.71655 -112.842 49.0093 -166.568 115.283 -166.568H970.011C1036.28 -166.568 1090.01 -112.842 1090.01 -46.5681V1988.82C1090.01 2046.97 1048.22 2096.96 990.807 2106.18C654.791 2160.15 430.183 2161.17 94.0766 2106.41C36.842 2097.08 -4.71655 2047.18 -4.71655 1989.19V-46.568Z" fill="url(#paint0_radial_44_314)"/>
<g filter="url(#filter0_f_44_314)">
<path d="M-340.728 2016.39L275.207 864.309H790.587L1474.9 2016.39H-340.728Z" fill="url(#paint1_linear_44_314)"/>
</g>
<g filter="url(#filter1_f_44_314)">
<path d="M-367.813 -274.641L248.122 877.439H763.501L1447.81 -274.641H-367.813Z" fill="url(#paint2_linear_44_314)"/>
</g>
<defs>
<filter id="filter0_f_44_314" x="-430.728" y="774.309" width="1995.63" height="1332.08" filterUnits="userSpaceOnUse" color-interpolation-filters="sRGB">
<feFlood flood-opacity="0" result="BackgroundImageFix"/>
<feBlend mode="normal" in="SourceGraphic" in2="BackgroundImageFix" result="shape"/>
<feGaussianBlur stdDeviation="45" result="effect1_foregroundBlur_44_314"/>
</filter>
<filter id="filter1_f_44_314" x="-457.813" y="-364.641" width="1995.63" height="1332.08" filterUnits="userSpaceOnUse" color-interpolation-filters="sRGB">
<feFlood flood-opacity="0" result="BackgroundImageFix"/>
<feBlend mode="normal" in="SourceGraphic" in2="BackgroundImageFix" result="shape"/>
<feGaussianBlur stdDeviation="45" result="effect1_foregroundBlur_44_314"/>
</filter>
<radialGradient id="paint0_radial_44_314" cx="0" cy="0" r="1" gradientUnits="userSpaceOnUse" gradientTransform="translate(565.271 1007.17) rotate(89.9719) scale(2036.98 1126.8)">
<stop offset="0.040691" stop-color="white"/>
<stop offset="0.170856" stop-color="#FFEAEA"/>
<stop offset="0.387789" stop-color="#FFC8C8"/>
<stop offset="0.677868" stop-color="#FE7B7B"/>
<stop offset="0.905998" stop-color="#FD0100"/>
</radialGradient>
<linearGradient id="paint1_linear_44_314" x1="567.085" y1="858.786" x2="567.085" y2="2016.39" gradientUnits="userSpaceOnUse">
<stop stop-color="white"/>
<stop offset="1" stop-color="white" stop-opacity="0"/>
</linearGradient>
<linearGradient id="paint2_linear_44_314" x1="540" y1="882.962" x2="540" y2="-274.641" gradientUnits="userSpaceOnUse">
<stop stop-color="white"/>
<stop offset="1" stop-color="white" stop-opacity="0"/>
</linearGradient>
</defs>
</svg>
