<svg width="1080" height="1920" viewBox="0 0 1080 1920" fill="none" xmlns="http://www.w3.org/2000/svg">
<g clip-path="url(#clip0_199_11)">
<rect width="1920" height="1080" transform="matrix(0 1 -1 0 1080 0)" fill="#FFD4D0"/>
<path d="M-4.71484 -46.568C-4.71484 -112.842 49.011 -166.568 115.285 -166.568H970.012C1036.29 -166.568 1090.01 -112.842 1090.01 -46.5681V1988.82C1090.01 2046.97 1048.23 2096.96 990.809 2106.18C654.792 2160.15 430.185 2161.17 94.0783 2106.41C36.8437 2097.08 -4.71484 2047.18 -4.71484 1989.19V-46.568Z" fill="url(#paint0_radial_199_11)"/>
<g filter="url(#filter0_f_199_11)">
<path d="M-340.727 2016.39L275.209 864.309H790.588L1474.9 2016.39H-340.727Z" fill="url(#paint1_linear_199_11)"/>
</g>
<g filter="url(#filter1_f_199_11)">
<path d="M-367.812 -274.641L248.123 877.439H763.502L1447.81 -274.641H-367.812Z" fill="url(#paint2_linear_199_11)"/>
</g>
<path d="M276.423 510.955V530H266.933V485.735H276.423V501.92H293.713V485.735H303.203V530H293.713V510.955H276.423ZM321.321 530.975C318.006 530.975 315.406 530 313.456 528.05C311.441 526.1 310.466 523.5 310.466 520.25C310.466 518.04 310.986 516.22 311.961 514.79C312.936 513.36 314.171 512.255 315.731 511.54C317.291 510.825 318.916 510.5 320.606 510.5C322.231 510.5 323.661 510.695 324.961 511.15C326.196 511.605 327.301 512.19 328.276 512.905C328.341 510.37 327.756 508.615 326.521 507.51C325.286 506.47 323.661 505.95 321.646 505.95C319.176 505.95 316.641 506.6 314.041 507.9L311.246 501.985C312.871 501.01 314.821 500.23 316.966 499.645C319.111 499.06 321.256 498.735 323.531 498.735C326.066 498.735 328.276 499.19 330.291 500.035C332.241 500.945 333.801 502.375 334.971 504.325C336.141 506.275 336.726 508.81 336.726 511.995V530H328.926V527.79C327.951 528.765 326.781 529.545 325.481 530.13C324.116 530.715 322.751 530.975 321.321 530.975ZM323.661 523.76C324.961 523.76 326.066 523.5 327.041 522.915C328.016 522.33 328.471 521.485 328.471 520.38C328.471 519.275 328.016 518.43 327.041 517.91C326.066 517.39 324.896 517.13 323.661 517.13C322.101 517.13 320.996 517.39 320.281 517.91C319.566 518.43 319.241 519.275 319.241 520.38C319.241 522.655 320.736 523.76 323.661 523.76ZM353.254 530H344.349V499.775H352.474V502.31C353.319 501.14 354.489 500.23 355.984 499.645C357.479 499.06 359.039 498.735 360.664 498.735C364.109 498.735 366.969 499.775 369.114 501.92C371.259 504.065 372.364 507.185 372.364 511.15V530H363.459V513.165C363.459 511.345 363.199 509.85 362.614 508.615C362.029 507.445 360.794 506.86 358.909 506.86C357.284 506.86 355.984 507.38 354.879 508.355C353.774 509.395 353.254 511.15 353.254 513.62V530ZM392.438 542.87C389.903 542.87 387.628 542.545 385.743 541.895C383.858 541.31 381.843 540.4 379.763 539.165L382.753 531.885C384.183 532.795 385.548 533.51 386.848 533.965C388.148 534.42 389.708 534.68 391.463 534.68C394.128 534.68 396.078 534.16 397.443 533.12C398.808 532.145 399.458 530.455 399.458 528.05V527.335C397.573 529.74 394.583 530.975 390.423 530.975C388.148 530.975 386.068 530.39 384.248 529.22C382.363 528.05 380.933 526.23 379.828 523.825C378.723 521.42 378.203 518.43 378.203 514.855C378.203 509.59 379.308 505.56 381.583 502.895C383.793 500.23 387.108 498.865 391.463 498.865C394.258 498.865 396.663 499.905 398.678 501.92V499.775H407.583V528.44C407.583 532.795 406.348 536.24 403.878 538.905C401.408 541.57 397.573 542.87 392.438 542.87ZM388.603 521.095C389.578 522.72 391.008 523.5 392.893 523.5C394.778 523.5 396.208 522.72 397.183 521.16C398.158 519.6 398.678 517.39 398.678 514.53C398.678 511.865 398.158 509.85 397.183 508.42C396.208 506.99 394.778 506.275 392.893 506.275C391.008 506.275 389.578 506.99 388.603 508.42C387.628 509.85 387.108 511.865 387.108 514.465C387.108 517.325 387.628 519.535 388.603 521.095ZM451.867 530.455H447.187C442.572 530.455 438.997 529.35 436.397 527.075C433.797 524.865 432.497 521.615 432.497 517.39V491.13H441.402V499.775H452.712L450.242 507.575H441.402V516.675C441.402 518.17 441.857 519.405 442.767 520.445C443.612 521.485 445.367 522.005 447.967 522.005H451.867V530.455ZM466.377 530H457.472V499.775H466.377V530ZM461.892 494.9C460.397 494.9 459.227 494.445 458.252 493.47C457.277 492.495 456.822 491.325 456.822 489.83C456.822 488.335 457.342 487.1 458.317 486.125C459.292 485.15 460.462 484.695 461.957 484.695C463.387 484.695 464.622 485.15 465.597 486.125C466.572 487.1 467.027 488.335 467.027 489.765C467.027 491.26 466.572 492.43 465.597 493.405C464.622 494.38 463.387 494.9 461.892 494.9ZM487.081 542.87C484.546 542.87 482.271 542.545 480.386 541.895C478.501 541.31 476.486 540.4 474.406 539.165L477.396 531.885C478.826 532.795 480.191 533.51 481.491 533.965C482.791 534.42 484.351 534.68 486.106 534.68C488.771 534.68 490.721 534.16 492.086 533.12C493.451 532.145 494.101 530.455 494.101 528.05V527.335C492.216 529.74 489.226 530.975 485.066 530.975C482.791 530.975 480.711 530.39 478.891 529.22C477.006 528.05 475.576 526.23 474.471 523.825C473.366 521.42 472.846 518.43 472.846 514.855C472.846 509.59 473.951 505.56 476.226 502.895C478.436 500.23 481.751 498.865 486.106 498.865C488.901 498.865 491.306 499.905 493.321 501.92V499.775H502.226V528.44C502.226 532.795 500.991 536.24 498.521 538.905C496.051 541.57 492.216 542.87 487.081 542.87ZM483.246 521.095C484.221 522.72 485.651 523.5 487.536 523.5C489.421 523.5 490.851 522.72 491.826 521.16C492.801 519.6 493.321 517.39 493.321 514.53C493.321 511.865 492.801 509.85 491.826 508.42C490.851 506.99 489.421 506.275 487.536 506.275C485.651 506.275 484.221 506.99 483.246 508.42C482.271 509.85 481.751 511.865 481.751 514.465C481.751 517.325 482.271 519.535 483.246 521.095ZM519.436 530H510.531V485.735H519.436V501.4C520.346 500.555 521.451 499.84 522.751 499.385C524.051 498.93 525.416 498.735 526.846 498.735C530.291 498.735 533.151 499.775 535.296 501.92C537.441 504.065 538.546 507.185 538.546 511.15V530H529.641V513.165C529.641 511.345 529.381 509.85 528.796 508.615C528.211 507.445 526.976 506.86 525.091 506.86C523.466 506.86 522.166 507.38 521.061 508.355C519.956 509.395 519.436 511.15 519.436 513.62V530ZM564.664 530.455H559.984C555.369 530.455 551.794 529.35 549.194 527.075C546.594 524.865 545.294 521.615 545.294 517.39V491.13H554.199V499.775H565.509L563.039 507.575H554.199V516.675C554.199 518.17 554.654 519.405 555.564 520.445C556.409 521.485 558.164 522.005 560.764 522.005H564.664V530.455ZM578.59 516.22H570.01V485.8H578.59V516.22ZM578.07 529.35C577.095 530.39 575.795 530.91 574.3 530.91C572.805 530.91 571.505 530.39 570.53 529.35C569.49 528.375 568.97 527.075 568.97 525.58C568.97 524.085 569.49 522.785 570.53 521.81C571.505 520.835 572.74 520.38 574.235 520.38C575.73 520.38 577.03 520.9 578.07 521.875C579.045 522.85 579.565 524.15 579.565 525.645C579.565 527.14 579.045 528.375 578.07 529.35ZM605.517 530V485.735H615.007V520.965H632.622V530H605.517ZM661.585 526.75C659.05 529.545 655.41 530.975 650.73 530.975C646.05 530.975 642.41 529.545 639.875 526.75C637.34 523.955 636.04 519.99 636.04 514.855C636.04 509.785 637.34 505.82 639.875 503.025C642.41 500.23 646.05 498.8 650.73 498.8C655.41 498.8 659.05 500.23 661.585 503.025C664.12 505.82 665.42 509.785 665.42 514.855C665.42 519.99 664.12 523.955 661.585 526.75ZM646.44 521.29C647.415 522.785 648.845 523.5 650.73 523.5C652.615 523.5 654.045 522.785 655.02 521.29C655.995 519.795 656.515 517.65 656.515 514.855C656.515 512.19 655.995 510.11 655.02 508.55C654.045 507.055 652.615 506.275 650.73 506.275C648.845 506.275 647.415 507.055 646.44 508.55C645.465 510.11 644.945 512.19 644.945 514.855C644.945 517.65 645.465 519.795 646.44 521.29ZM680.408 530.975C677.093 530.975 674.493 530 672.543 528.05C670.528 526.1 669.553 523.5 669.553 520.25C669.553 518.04 670.073 516.22 671.048 514.79C672.023 513.36 673.258 512.255 674.818 511.54C676.378 510.825 678.003 510.5 679.693 510.5C681.318 510.5 682.748 510.695 684.048 511.15C685.283 511.605 686.388 512.19 687.363 512.905C687.428 510.37 686.843 508.615 685.608 507.51C684.373 506.47 682.748 505.95 680.733 505.95C678.263 505.95 675.728 506.6 673.128 507.9L670.333 501.985C671.958 501.01 673.908 500.23 676.053 499.645C678.198 499.06 680.343 498.735 682.618 498.735C685.153 498.735 687.363 499.19 689.378 500.035C691.328 500.945 692.888 502.375 694.058 504.325C695.228 506.275 695.813 508.81 695.813 511.995V530H688.013V527.79C687.038 528.765 685.868 529.545 684.568 530.13C683.203 530.715 681.838 530.975 680.408 530.975ZM682.748 523.76C684.048 523.76 685.153 523.5 686.128 522.915C687.103 522.33 687.558 521.485 687.558 520.38C687.558 519.275 687.103 518.43 686.128 517.91C685.153 517.39 683.983 517.13 682.748 517.13C681.188 517.13 680.083 517.39 679.368 517.91C678.653 518.43 678.328 519.275 678.328 520.38C678.328 522.655 679.823 523.76 682.748 523.76ZM730.996 530H722.741V527.14C720.596 529.675 717.801 530.975 714.356 530.975C710.261 530.975 707.141 529.545 704.931 526.75C702.721 523.955 701.616 520.055 701.616 514.92C701.616 509.785 702.721 505.755 704.996 502.96C707.206 500.165 710.326 498.8 714.421 498.8C717.476 498.8 720.076 499.84 722.091 501.855V485.735H730.996V530ZM720.596 508.485C719.621 506.99 718.191 506.275 716.306 506.275C714.421 506.275 712.991 506.99 712.016 508.485C711.041 509.98 710.521 512.125 710.521 514.92C710.521 517.585 711.041 519.665 712.016 521.16C712.991 522.72 714.421 523.5 716.306 523.5C718.191 523.5 719.621 522.72 720.596 521.16C721.571 519.665 722.091 517.585 722.091 514.92C722.091 512.125 721.571 509.98 720.596 508.485ZM748.53 530H739.625V499.775H748.53V530ZM744.045 494.9C742.55 494.9 741.38 494.445 740.405 493.47C739.43 492.495 738.975 491.325 738.975 489.83C738.975 488.335 739.495 487.1 740.47 486.125C741.445 485.15 742.615 484.695 744.11 484.695C745.54 484.695 746.775 485.15 747.75 486.125C748.725 487.1 749.18 488.335 749.18 489.765C749.18 491.26 748.725 492.43 747.75 493.405C746.775 494.38 745.54 494.9 744.045 494.9ZM765.725 530H756.82V499.775H764.945V502.31C765.79 501.14 766.96 500.23 768.455 499.645C769.95 499.06 771.51 498.735 773.135 498.735C776.58 498.735 779.44 499.775 781.585 501.92C783.73 504.065 784.835 507.185 784.835 511.15V530H775.93V513.165C775.93 511.345 775.67 509.85 775.085 508.615C774.5 507.445 773.265 506.86 771.38 506.86C769.755 506.86 768.455 507.38 767.35 508.355C766.245 509.395 765.725 511.15 765.725 513.62V530ZM804.908 542.87C802.373 542.87 800.098 542.545 798.213 541.895C796.328 541.31 794.313 540.4 792.233 539.165L795.223 531.885C796.653 532.795 798.018 533.51 799.318 533.965C800.618 534.42 802.178 534.68 803.933 534.68C806.598 534.68 808.548 534.16 809.913 533.12C811.278 532.145 811.928 530.455 811.928 528.05V527.335C810.043 529.74 807.053 530.975 802.893 530.975C800.618 530.975 798.538 530.39 796.718 529.22C794.833 528.05 793.403 526.23 792.298 523.825C791.193 521.42 790.673 518.43 790.673 514.855C790.673 509.59 791.778 505.56 794.053 502.895C796.263 500.23 799.578 498.865 803.933 498.865C806.728 498.865 809.133 499.905 811.148 501.92V499.775H820.053V528.44C820.053 532.795 818.818 536.24 816.348 538.905C813.878 541.57 810.043 542.87 804.908 542.87ZM801.073 521.095C802.048 522.72 803.478 523.5 805.363 523.5C807.248 523.5 808.678 522.72 809.653 521.16C810.628 519.6 811.148 517.39 811.148 514.53C811.148 511.865 810.628 509.85 809.653 508.42C808.678 506.99 807.248 506.275 805.363 506.275C803.478 506.275 802.048 506.99 801.073 508.42C800.098 509.85 799.578 511.865 799.578 514.465C799.578 517.325 800.098 519.535 801.073 521.095ZM419.022 619.83H409.467L415.707 604.295L404.332 577.775H414.017L420.257 594.22L426.042 577.775H435.597L419.022 619.83ZM462.935 604.75C460.4 607.545 456.76 608.975 452.08 608.975C447.4 608.975 443.76 607.545 441.225 604.75C438.69 601.955 437.39 597.99 437.39 592.855C437.39 587.785 438.69 583.82 441.225 581.025C443.76 578.23 447.4 576.8 452.08 576.8C456.76 576.8 460.4 578.23 462.935 581.025C465.47 583.82 466.77 587.785 466.77 592.855C466.77 597.99 465.47 601.955 462.935 604.75ZM447.79 599.29C448.765 600.785 450.195 601.5 452.08 601.5C453.965 601.5 455.395 600.785 456.37 599.29C457.345 597.795 457.865 595.65 457.865 592.855C457.865 590.19 457.345 588.11 456.37 586.55C455.395 585.055 453.965 584.275 452.08 584.275C450.195 584.275 448.765 585.055 447.79 586.55C446.815 588.11 446.295 590.19 446.295 592.855C446.295 595.65 446.815 597.795 447.79 599.29ZM483.383 608.91C480.133 608.91 477.468 607.805 475.453 605.66C473.438 603.515 472.398 600.46 472.398 596.43V577.775H481.303V594.415C481.303 596.43 481.563 597.99 482.148 599.095C482.733 600.2 483.838 600.785 485.463 600.785C486.828 600.785 488.063 600.265 489.038 599.29C490.013 598.315 490.468 596.625 490.468 594.285V577.775H499.373V608H491.313V605.465C490.273 606.57 489.103 607.415 487.868 608C486.568 608.585 485.073 608.91 483.383 608.91ZM516.676 608H507.706V577.775H515.766L515.831 582.65C516.676 581.025 517.976 579.79 519.731 578.815C521.486 577.905 523.371 577.45 525.516 577.45H526.816V585.9H524.281C522.006 585.9 520.186 586.68 518.821 588.24C517.391 589.865 516.676 592.01 516.676 594.675V608ZM562.147 608.455H558.962C555.842 608.455 553.437 607.74 551.747 606.375C549.992 605.01 549.147 602.475 549.147 598.77V563.735H558.052V598.185C558.052 598.835 558.182 599.29 558.377 599.55C558.572 599.875 559.027 600.005 559.742 600.005H562.147V608.455ZM591.348 604.75C588.813 607.545 585.173 608.975 580.493 608.975C575.813 608.975 572.173 607.545 569.638 604.75C567.103 601.955 565.803 597.99 565.803 592.855C565.803 587.785 567.103 583.82 569.638 581.025C572.173 578.23 575.813 576.8 580.493 576.8C585.173 576.8 588.813 578.23 591.348 581.025C593.883 583.82 595.183 587.785 595.183 592.855C595.183 597.99 593.883 601.955 591.348 604.75ZM576.203 599.29C577.178 600.785 578.608 601.5 580.493 601.5C582.378 601.5 583.808 600.785 584.783 599.29C585.758 597.795 586.278 595.65 586.278 592.855C586.278 590.19 585.758 588.11 584.783 586.55C583.808 585.055 582.378 584.275 580.493 584.275C578.608 584.275 577.178 585.055 576.203 586.55C575.228 588.11 574.708 590.19 574.708 592.855C574.708 595.65 575.228 597.795 576.203 599.29ZM624.991 604.75C622.456 607.545 618.816 608.975 614.136 608.975C609.456 608.975 605.816 607.545 603.281 604.75C600.746 601.955 599.446 597.99 599.446 592.855C599.446 587.785 600.746 583.82 603.281 581.025C605.816 578.23 609.456 576.8 614.136 576.8C618.816 576.8 622.456 578.23 624.991 581.025C627.526 583.82 628.826 587.785 628.826 592.855C628.826 597.99 627.526 601.955 624.991 604.75ZM609.846 599.29C610.821 600.785 612.251 601.5 614.136 601.5C616.021 601.5 617.451 600.785 618.426 599.29C619.401 597.795 619.921 595.65 619.921 592.855C619.921 590.19 619.401 588.11 618.426 586.55C617.451 585.055 616.021 584.275 614.136 584.275C612.251 584.275 610.821 585.055 609.846 586.55C608.871 588.11 608.351 590.19 608.351 592.855C608.351 595.65 608.871 597.795 609.846 599.29ZM644.008 608H635.103V563.735H644.008V588.435L652.783 577.775H663.378L651.548 591.945L665.068 608H653.953L644.008 596.235V608ZM677.391 594.22H668.811V563.8H677.391V594.22ZM676.871 607.35C675.896 608.39 674.596 608.91 673.101 608.91C671.606 608.91 670.306 608.39 669.331 607.35C668.291 606.375 667.771 605.075 667.771 603.58C667.771 602.085 668.291 600.785 669.331 599.81C670.306 598.835 671.541 598.38 673.036 598.38C674.531 598.38 675.831 598.9 676.871 599.875C677.846 600.85 678.366 602.15 678.366 603.645C678.366 605.14 677.846 606.375 676.871 607.35Z" fill="#FD0100"/>
</g>
<defs>
<filter id="filter0_f_199_11" x="-430.727" y="774.309" width="1995.62" height="1332.08" filterUnits="userSpaceOnUse" color-interpolation-filters="sRGB">
<feFlood flood-opacity="0" result="BackgroundImageFix"/>
<feBlend mode="normal" in="SourceGraphic" in2="BackgroundImageFix" result="shape"/>
<feGaussianBlur stdDeviation="45" result="effect1_foregroundBlur_199_11"/>
</filter>
<filter id="filter1_f_199_11" x="-457.812" y="-364.641" width="1995.62" height="1332.08" filterUnits="userSpaceOnUse" color-interpolation-filters="sRGB">
<feFlood flood-opacity="0" result="BackgroundImageFix"/>
<feBlend mode="normal" in="SourceGraphic" in2="BackgroundImageFix" result="shape"/>
<feGaussianBlur stdDeviation="45" result="effect1_foregroundBlur_199_11"/>
</filter>
<radialGradient id="paint0_radial_199_11" cx="0" cy="0" r="1" gradientUnits="userSpaceOnUse" gradientTransform="translate(565.273 1007.17) rotate(89.9719) scale(2036.98 1126.8)">
<stop offset="0.040691" stop-color="white"/>
<stop offset="0.170856" stop-color="#FFEAEA"/>
<stop offset="0.387789" stop-color="#FFC8C8"/>
<stop offset="0.677868" stop-color="#FE7B7B"/>
<stop offset="0.905998" stop-color="#FD0100"/>
</radialGradient>
<linearGradient id="paint1_linear_199_11" x1="567.087" y1="858.786" x2="567.087" y2="2016.39" gradientUnits="userSpaceOnUse">
<stop stop-color="white"/>
<stop offset="1" stop-color="white" stop-opacity="0"/>
</linearGradient>
<linearGradient id="paint2_linear_199_11" x1="540.001" y1="882.962" x2="540.001" y2="-274.641" gradientUnits="userSpaceOnUse">
<stop stop-color="white"/>
<stop offset="1" stop-color="white" stop-opacity="0"/>
</linearGradient>
<clipPath id="clip0_199_11">
<rect width="1920" height="1080" fill="white" transform="matrix(0 1 -1 0 1080 0)"/>
</clipPath>
</defs>
</svg>
